<?xml version="1.0" encoding="utf-8"?>
<!-- Generator: Adobe Illustrator 18.0.0, SVG Export Plug-In . SVG Version: 6.00 Build 0)  -->
<!DOCTYPE svg PUBLIC "-//W3C//DTD SVG 1.1//EN" "http://www.w3.org/Graphics/SVG/1.1/DTD/svg11.dtd">
<svg version="1.1" id="Layer_1" xmlns="http://www.w3.org/2000/svg" xmlns:xlink="http://www.w3.org/1999/xlink" x="0px" y="0px"
	 width="1400px" height="980px" viewBox="0 0 1400 980" enable-background="new 0 0 1400 980" xml:space="preserve">
<g>
	<rect fill="#E9CF61" width="1400" height="763.3"/>
</g>
<g>
	<circle fill="#EDE07D" cx="700" cy="621.2" r="208.9"/>
</g>
<g>
	<circle fill="#FCF494" cx="700" cy="621.2" r="156.3"/>
</g>
<g>
	<polygon fill="#FDB843" points="1207.9,479.9 1108.4,447.7 1011,549.5 1003.4,588.9 935.2,671.1 935.2,711.2 1207.9,711.2 	"/>
</g>
<g>
	<polygon fill="#F99E2E" points="700,766.8 891.9,688.9 1009.8,634.1 1082.4,542.9 1174.7,520.5 1245.2,398.6 1345.1,449.3 
		1364.8,474.6 1400,474.6 1400,803.3 700,803.3 	"/>
</g>
<g>
	<polygon fill="#FDB843" points="35.9,594.8 96.5,511.8 151.7,511.8 199.2,466.2 258.4,444.1 353.7,592 402,611.5 454,699.9 
		36.4,699.9 	"/>
</g>
<g>
	<polygon fill="#F99E2E" points="622.3,747.5 502,721.3 454,683.6 353.1,660.1 331.1,632 225.4,621.6 178.7,578 101,568.4 
		93.5,538.3 0,479.9 0,788.4 348.5,788.4 433.5,788.4 737.7,788.4 	"/>
</g>
<g>
	<path fill="#9E7431" d="M0,716.8c0,0,75.2-38,254.3,0C433.5,754.8,535.8,797,855,749v145.2H0V716.8z"/>
</g>
<g>
	<path fill="#846327" d="M288.1,859.2c0,0,166,21.6,255-11.7c89.1-33.3,220.2-103.6,392.1-103.6s175.7,8.6,320.1,8.6
		c89.6,0,144.2-27.2,144.2-27.2V980H288.1V859.2z"/>
</g>
<g>
	<path fill="#AF3F25" d="M0,825.3c0,0,226.2,8.2,392.4,59.9c93.1,29,238.4,31,348.1,27.1c116-4.1,232.1,2.7,346.9,20.2L1400,980H0
		V825.3z"/>
</g>
<g>
	<path fill="#FEE8AF" d="M1068.3,325c0,0,36-2.3,52.7-31.5c10.7-18.7,29.6-22.6,40.3,0c10.7,22.6,22.5,14.8,31.5,3.6
		c10.4-13,20-11.9,31.9,6.1c8.4,12.6,22.2,21.9,22.2,21.9H1068.3z"/>
</g>
<g>
	<path fill="#FEE8AF" d="M208.8,188.5c0,0,8.3-2.2,18.6-5.7c16.4-5.7,30.3-16.4,40.4-30.3c7.5-10.3,19.9-18.3,34.6,7.5
		c17,29.9,42.5-9.6,55.2-25.2c15.1-18.6,23.7-10.9,52.6,24.3c24.3,29.6,40.1-3.1,60.9-36.4c15.8-25.2,26.2-18.3,50.4,25.1
		c10.2,18.4,26.7,32.9,46.3,40.1c0.8,0.3,1.5,0.6,2.3,0.8H208.8z"/>
</g>
<g>
	<g>
		<path fill="#AF3F25" d="M235.4,865.3l5.2-73.9C240.7,791.4,260,837.8,235.4,865.3z"/>
	</g>
	<g>
		<path fill="#AF3F25" d="M226.4,860.7l51.2-53.6C277.6,807.1,262.8,855.2,226.4,860.7z"/>
	</g>
	<g>
		<path fill="#AF3F25" d="M225.7,853.6l69.5-25.6C295.2,828.1,260.8,864.7,225.7,853.6z"/>
	</g>
	<g>
		<path fill="#AF3F25" d="M248.1,867l-61.9-40.8C186.2,826.2,236.1,832.1,248.1,867z"/>
	</g>
	<g>
		<path fill="#AF3F25" d="M244.1,868.9l-35.3-65.1C208.8,803.8,250,832.6,244.1,868.9z"/>
	</g>
</g>
<g>
	<g>
		<path fill="#846327" d="M1119.5,757.8v-49.6C1119.5,708.1,1134.6,738.2,1119.5,757.8z"/>
	</g>
	<g>
		<path fill="#846327" d="M1113.2,755.1l31.7-38.2C1144.9,716.9,1137.3,749.7,1113.2,755.1z"/>
	</g>
	<g>
		<path fill="#846327" d="M1112.4,750.4l45.3-20.4C1157.7,730.1,1136.4,756.2,1112.4,750.4z"/>
	</g>
	<g>
		<path fill="#846327" d="M1128,758.3l-43.3-24.3C1084.7,734,1118.4,735.6,1128,758.3z"/>
	</g>
	<g>
		<path fill="#846327" d="M1125.5,759.8l-26.7-41.8C1098.8,717.9,1127.7,735.2,1125.5,759.8z"/>
	</g>
</g>
<g>
	<g>
		<path fill="#846327" d="M1258.6,771.8L1258.6,771.8c-5.8,0-10.6-4.7-10.6-10.6V653.6c0-5.8,4.7-10.6,10.6-10.6l0,0
			c5.8,0,10.6,4.7,10.6,10.6v107.6C1269.2,767,1264.5,771.8,1258.6,771.8z"/>
	</g>
	<g>
		<path fill="#846327" d="M1268.5,728.4h-6.4c-4.1,0-7.5-3.4-7.5-7.5c0-4.1,3.4-7.5,7.5-7.5h6.4c7.1,0,12.8-5.7,12.8-12.8
			c0-4.1,3.4-7.5,7.5-7.5c4.1,0,7.5,3.4,7.5,7.5C1296.3,716,1283.9,728.4,1268.5,728.4z"/>
	</g>
	<g>
		<path fill="#846327" d="M1250.1,707h-6.4c-15.3,0-27.8-12.5-27.8-27.8v-25.6c0-4.1,3.4-7.5,7.5-7.5s7.5,3.4,7.5,7.5v25.6
			c0,7.1,5.7,12.8,12.8,12.8h6.4c4.1,0,7.5,3.4,7.5,7.5C1257.6,703.7,1254.2,707,1250.1,707z"/>
	</g>
</g>
<g>
	<g>
		<g>
			<path fill="#9E7431" d="M92,713L92,713c-3,0-5.4-2.4-5.4-5.4v-53c0-3,2.4-5.4,5.4-5.4l0,0c3,0,5.4,2.4,5.4,5.4v53
				C97.3,710.6,94.9,713,92,713z"/>
		</g>
	</g>
	<g>
		<g>
			<path fill="#9E7431" d="M100.7,672.2h-6.3c-1.9,0-3.5-1.6-3.5-3.5c0-1.9,1.6-3.5,3.5-3.5h6.3c5.1,0,9.2-4.1,9.2-9.2v-19
				c0-1.9,1.6-3.5,3.5-3.5s3.5,1.6,3.5,3.5v19C116.9,665,109.7,672.2,100.7,672.2z"/>
		</g>
	</g>
	<g>
		<g>
			<path fill="#9E7431" d="M90.4,693.2h-2.6c-9.2,0-16.7-7.5-16.7-16.7V671c0-1.9,1.6-3.5,3.5-3.5c1.9,0,3.5,1.6,3.5,3.5v5.4
				c0,5.4,4.4,9.7,9.7,9.7h2.6c1.9,0,3.5,1.6,3.5,3.5C93.9,691.6,92.4,693.2,90.4,693.2z"/>
		</g>
	</g>
</g>
<g>
	<path fill="#AF3F25" d="M668,790.6l-3.3-1.4l-11.6,3.3c3.4-28.2-18-63.1-18-63.1s18.6-6,21.8-2.6c1.5,1.6,2.9,3.2,4.1,4.8
		c4.8,6.3,14.1,6.8,19.4,0.9l0.7-0.8c4-4.5,3.1-11.4-1.8-14.7c-9.4-6.4-24-16.9-34.8-27.8c0,0-1.5-2.7-4.3-6.1
		c2.6-7.4,7.2-19.9,7.2-19.9s-10.4,4.4-14.9,12.1c-2.1-1.7-4.3-3.2-6.8-4.4c-2.5-7.6-4.7-14.9-4.7-14.9s-1.1,5.6-1.7,12.6
		c-5.2-1.2-11.3-1.5-17.4,1.8c-13.7,7.4-13.7,23-12,34.6c-12.2-8.5-35-26.5-35.3-27.2l0,0c-1.8-3.1-6.4-4.7-11.9-5l-4.6-8.4
		c4.6-1.7,8.5-4.3,9.1-8.4c0.6-3.5-0.6-6.8-2-9.2c12.5-4.6,21.1-10.2,17-14.9c-4.3-4.9-12.3-6.5-20.7-6.2l-10.1-10.1
		c0,0-8.5,0.2-13.7,2.6c-6.5,3-12.8,5.8-12.6,10.4c0.1,3.3,0.1,8.8,0,11.7c-5,1.5-10.3,1.6-13.3,1.5c-2.3-0.1-4.5,1-5.8,3
		c-1.4,2.3-1.5,5.6,5.3,9.4c3.1,1.7,9.5,1.9,17.2,1.1c0.1,0.6,0.3,1.2,0.4,1.7c1.6,5.9,11.1,10.2,11.1,10.2l3,9.2
		c-2,1-3.8,2.1-5.1,3.3l0,0l0,0c-0.4,0.4-0.8,0.8-1.1,1.3l-24.4,27.4l-29.1-11.7l-9.5-3.9l2.4-4.9l-9.4-1.3l0.6-18
		c0.7-0.3,1.7-0.6,2.9-1c15.2-5.4,29.4-11.4,29.7-18.3c0.1-2.9-2.1-5.4-6.7-7.6c-9.2-4.3-19.5-5.5-30-3.5
		c-8.3,1.6-16.6,5.3-22.6,10.1c-5.3,4.2-8,8.4-7.3,11.6c0.9,4.1,6.6,6.8,17.5,8.1c5.7,0.7,11.2,0.9,13.8,0.9l-0.5,17.2l-3-0.4
		l-7.1,19.4l8.3,3.7c-1.6,8.8-1.6,22.6,11,29c12.4,6.2,18.3,18.8,21,28.2c0.5,1.7,0.9,3.4,1.3,5c-6.1-0.9-12.8-3.1-19.9-7.3
		c-29.6-17.5-72.6-11.1-68.1,25.3c4.2,33.8-3.4,49.7-3.4,49.7s30.8-5.6,31.7-38.6c0.9-33,23.2-27.9,23.2-27.9s-16.7,18.1,6.6,46.8
		c23.2,28.7,0,47.9,0,47.9l21.6,43.8h14l-14-42.4l38.6,42.4h16.4l-43.5-54.7c0,0,10.7-2.9,20-26.3c0,0,40.2,8.4,66.7-5
		c15.5,2.9,33.9,4.8,50.1,2l16.5,2l-11.6,17.7c-14.5-0.2-18.4,24.1-18.4,24.1l26.1-9.1l16.5-36.3l-8.7-5.6c1.3-0.8,2.5-1.6,3.7-2.4
		c4.6-3.4,7.9-7.5,10.1-12l17.1-4.9l-0.6,13.1c-11.5,8.8,0.5,30.3,0.5,30.3l14.9-23.3l-3.1-25.9L668,790.6z M430.9,665.6
		c-9.1-1.1-14.6-3.3-15.1-6c-0.3-1.7,1.5-5,6.3-8.9c5.7-4.6,13.6-8.1,21.5-9.6c3.1-0.6,6.3-0.9,9.3-0.9c6.6,0,13,1.4,18.9,4.2
		c2.4,1.1,5.2,2.9,5.1,5c-0.1,1.4-1.5,4.4-10.4,8.8c-6,3-12.9,5.4-17.5,7.1c-1.5,0.5-2.7,1-3.6,1.3
		C444.2,666.4,437.6,666.4,430.9,665.6z M584.1,752c0,0-10.6-18.2-19.1-36.4l25.7,11.2C591.3,738.3,587.6,746.7,584.1,752z
		 M478.1,771.6c-0.4-1.9-0.9-4-1.5-6.1c-4.2-14.3-11.9-24.6-22.4-29.9c-4.6-2.3-7.7-6-9.2-11c-1.4-4.7-1.2-10-0.5-14.4l3.5,1.5
		l3.7-3.8l7.3,4.5l33.7,20.5l22-10.9c2.7,11.3,4.4,25.7,5.8,36.1c-6.7,2.5-10.8,4.6-10.8,4.6S497,773.3,478.1,771.6z"/>
</g>
<g>
	<path fill="#FEE8AF" d="M856.3,244.4c0,0,5.4,1.2,27.1-17.7c17.4-15.2,21.1,9.8,48.7,17.7H856.3z"/>
</g>
<g>
	<path fill="#FEE8AF" d="M136.4,324.6c0,0,3.3,0.8,16.6-10.9c10.7-9.3,12.9,6,29.9,10.9H136.4z"/>
</g>
<g>
	<g>
		<path fill="#9E7431" d="M308.6,740.1v-40.2C308.6,699.9,320.8,724.3,308.6,740.1z"/>
	</g>
	<g>
		<path fill="#9E7431" d="M303.5,738l25.7-31C329.2,707,323,733.6,303.5,738z"/>
	</g>
	<g>
		<path fill="#9E7431" d="M313.4,741.8l-21.6-33.9C291.8,707.9,315.2,721.9,313.4,741.8z"/>
	</g>
</g>
<path fill="#F99E2E" d="M507.7,308.1c0,0,46.6-2.8,55,28.4l-8.4,11.2h37.2l-8.8-10.9c0,0,13.7-38.3,56.1-28.8c0,0-41-20.6-65.5,10.9
	C573.2,319,550.4,291.7,507.7,308.1z"/>
<path fill="#F99E2E" d="M1116.8,137.9c0,0,29.1-1.8,34.4,17.7l-5.3,7h23.2l-5.5-6.8c0,0,8.5-23.9,35-18c0,0-25.6-12.9-40.9,6.8
	C1157.7,144.7,1143.5,127.6,1116.8,137.9z"/>
<path fill="#832E1D" d="M383.8,980c0,0,215.1,0,390.3-69c181.4-71.5,422.5-110.7,625.9-8.3V980H383.8z"/>
<g>
	<g>
		<path fill="#832E1D" d="M1295.3,886.1l5.7-75.1C1301,811,1320.3,858.3,1295.3,886.1z"/>
	</g>
	<g>
		<path fill="#832E1D" d="M1286.1,881.4l52.3-54.2C1338.4,827.2,1323.1,876,1286.1,881.4z"/>
	</g>
	<g>
		<path fill="#832E1D" d="M1304.1,889.9l-35.6-66.4C1268.5,823.5,1310.3,853,1304.1,889.9z"/>
	</g>
</g>
<g>
	<path fill="#846327" d="M972.6,722.4c-0.4-2.3-1-4.9-2.5-6.4c-5-5-12.4-6.6-18.9-4.1c-1.7,0.7-3.4,1.6-4.8,3.1
		c-2.6,2.9-3.4,7.3-4,11.4c-0.3,2.1-0.7,4.3-0.2,6.3c0.5,2,2.1,3.8,3.9,3.5c-0.8-4.4-0.5-9.2,1.3-13.3c1.8-4.1,5.2-7.5,9.1-8.1
		c1.8-0.3,3.7,0,5.4,0.8c2.8,1.4,4.9,4.5,5,8c0.1,3-1.2,6.1-3.4,7.8c-2.2,1.7-5.1,2-7.4,0.6c-1.2-0.7-1.4-1.7-1.8-3.1
		c-0.4-1.5,0.6-3.7,1.6-4.7c0,3.2,2.5,4.3,5.1,3s2.8-4.3,0.8-6.5c-1.2-1.3-2.9-1.7-4.5-1.9c-1-0.1-2-0.1-3,0.3c-2,1-3,3.8-3.3,6.3
		c-0.4,2.5-0.4,5.3,0.9,7.3c1.2,1.8,3.3,2.4,5.2,3c3.2,0.9,6.7,1.8,9.9,0.2c3.1-1.6,4.3-4.6,5.2-8.4
		C972.7,725.7,972.9,724,972.6,722.4z"/>
	<path fill="#846327" d="M975.8,726.9c0,0,0.9-7.9-4-12.5C971.7,714.4,979.7,718.3,975.8,726.9z"/>
	<path fill="#846327" d="M979.3,723.6c0,0,0.6-5.3-2.7-8.3C976.6,715.3,981.8,717.9,979.3,723.6z"/>
</g>
<g>
	<path fill="#AF3F25" d="M84.3,802.9c-1.6,2.7-3.3,5.9-3.1,8.8c0.7,9.6,6.9,17.9,15.8,21.1c2.4,0.9,5,1.4,7.7,1
		c5.3-0.7,10-4.5,14.3-8.1c2.2-1.9,4.5-3.8,5.8-6.3c1.3-2.5,1.2-5.8-0.9-7.1c-3.2,5.2-7.7,9.9-13.3,12.6c-5.5,2.6-12.1,3-16.7,0.2
		c-2.2-1.3-3.9-3.3-4.8-5.7c-1.6-3.9-1-9,2-12.8c2.6-3.2,6.7-5.2,10.5-4.9c3.8,0.2,7,2.6,8.2,6c0.6,1.7-0.1,2.9-1,4.8
		c-0.9,1.9-4,3.3-5.9,3.4c2.9-3.4,1.3-6.7-2.6-7.6s-6.7,2-6.7,6c0,2.4,1.4,4.3,3,6c0.9,1,2,2,3.4,2.4c3,0.8,6.4-1.2,9-3.4
		c2.6-2.3,5.2-5.1,5.5-8.3c0.3-2.9-1.2-5.4-2.7-7.7c-2.5-3.8-5.4-7.9-10-9c-4.6-1.1-8.6,0.9-12.9,4C87.2,799.4,85.4,801,84.3,802.9z
		"/>
	<path fill="#AF3F25" d="M85,795.5c0,0-8,7.4-7,16.5C78,811.9,73.3,800.9,85,795.5z"/>
	<path fill="#AF3F25" d="M78.5,795.7c0,0-5.3,4.9-4.7,10.9C73.9,806.7,70.7,799.3,78.5,795.7z"/>
</g>
<g>
	<g>
		<path fill="#832E1D" d="M830.2,917.5L830.2,917.5c-9.4,0-17-7.6-17-17V768.3c0-9.4,7.6-17,17-17l0,0c9.4,0,17,7.6,17,17v132.2
			C847.2,909.9,839.6,917.5,830.2,917.5z"/>
	</g>
	<g>
		<ellipse fill="#832E1D" cx="881" cy="817.8" rx="18.7" ry="26.6"/>
	</g>
	<g>
		<ellipse fill="#832E1D" cx="781" cy="748.8" rx="28.6" ry="40.7"/>
	</g>
	<g>
		<path fill="#832E1D" d="M839.3,867.5v-14.1c12.6,0,22.5-5.5,29.4-16.5c5.3-8.4,6.9-17.1,6.9-17.1l13.9,2.4
			C886.9,837.8,873,867.5,839.3,867.5z"/>
	</g>
	<g>
		<path fill="#832E1D" d="M825.5,822.2c-33.7,0-47.6-29.7-50.3-45.4l13.9-2.4c0.2,1.4,6.2,33.6,36.3,33.6V822.2z"/>
	</g>
</g>
<g>
	<path fill="#832E1D" d="M1101.8,846.2c-8.8,7.2-82.5,2.3-82.5,2.3s0.7-4.9-0.3-8.6c1.2-0.6,2.5-1.8,4-3.8c3.8-4.8-8.9-2.3-8.9-2.3
		c-3.3-5.9,0.3-13.2,6.9-14.5c8.5-1.6,20.1-5,25.4-11.3c8.9-10.6,28.8-11.3,43.5-3.3C1104.8,812.9,1110.7,839,1101.8,846.2z"/>
	<path fill="#832E1D" d="M1071.8,809.9c0,0,35.1,5.9,52.6-23.7c0,0-7.6,41.3-47,43.5L1071.8,809.9z"/>
	<path fill="#832E1D" d="M1065.9,804.8c0,0-23.8-5.2-23.9-26.5c0,0-12.9,22.3,8.5,38.4L1065.9,804.8z"/>
</g>
<path fill="#832E1D" d="M553,980H0v-55.9c48.8-26.6,122.5-39.5,226.8-6.6c176,55.5,317,50.1,317,50.1L553,980z"/>
</svg>
